<mxfile host="app.diagrams.net" agent="Mozilla/5.0 (X11; CrOS x86_64 14541.0.0) AppleWebKit/537.36 (KHTML, like Gecko) Chrome/130.0.0.0 Safari/537.36" version="26.0.14" pages="2">
  <diagram name="Halaman-1" id="Dd6zAoBBWDEP4UWYnoZG">
    <mxGraphModel dx="1707" dy="1595" grid="1" gridSize="10" guides="1" tooltips="1" connect="1" arrows="1" fold="1" page="1" pageScale="1" pageWidth="827" pageHeight="1169" math="0" shadow="0">
      <root>
        <mxCell id="0" />
        <mxCell id="1" parent="0" />
        <mxCell id="AyXInt_FfGXdh9bznU79-2" value="&lt;font style=&quot;font-size: 18px;&quot;&gt;Siswa&lt;/font&gt;" style="rounded=0;whiteSpace=wrap;html=1;" parent="1" vertex="1">
          <mxGeometry x="110" y="165" width="130" height="50" as="geometry" />
        </mxCell>
        <mxCell id="AyXInt_FfGXdh9bznU79-13" value="" style="endArrow=none;html=1;rounded=0;entryX=0;entryY=0.5;entryDx=0;entryDy=0;" parent="1" target="AyXInt_FfGXdh9bznU79-4" edge="1">
          <mxGeometry width="50" height="50" relative="1" as="geometry">
            <mxPoint x="240" y="190" as="sourcePoint" />
            <mxPoint x="370" y="190" as="targetPoint" />
          </mxGeometry>
        </mxCell>
        <mxCell id="AyXInt_FfGXdh9bznU79-102" value="1" style="edgeLabel;html=1;align=center;verticalAlign=middle;resizable=0;points=[];" parent="AyXInt_FfGXdh9bznU79-13" vertex="1" connectable="0">
          <mxGeometry x="-0.8068" y="-2" relative="1" as="geometry">
            <mxPoint as="offset" />
          </mxGeometry>
        </mxCell>
        <mxCell id="AyXInt_FfGXdh9bznU79-23" value="&lt;span style=&quot;font-size: 18px;&quot;&gt;Buku&lt;/span&gt;" style="rounded=0;whiteSpace=wrap;html=1;" parent="1" vertex="1">
          <mxGeometry x="880" y="165" width="130" height="50" as="geometry" />
        </mxCell>
        <mxCell id="AyXInt_FfGXdh9bznU79-24" value="" style="endArrow=none;html=1;rounded=0;" parent="1" source="AyXInt_FfGXdh9bznU79-4" target="AyXInt_FfGXdh9bznU79-23" edge="1">
          <mxGeometry width="50" height="50" relative="1" as="geometry">
            <mxPoint x="500" y="200" as="sourcePoint" />
            <mxPoint x="550" y="150" as="targetPoint" />
          </mxGeometry>
        </mxCell>
        <mxCell id="AyXInt_FfGXdh9bznU79-101" value="N" style="edgeLabel;html=1;align=center;verticalAlign=middle;resizable=0;points=[];" parent="AyXInt_FfGXdh9bznU79-24" vertex="1" connectable="0">
          <mxGeometry x="0.859" y="5" relative="1" as="geometry">
            <mxPoint as="offset" />
          </mxGeometry>
        </mxCell>
        <mxCell id="AyXInt_FfGXdh9bznU79-25" value="&lt;font style=&quot;font-size: 18px;&quot;&gt;Nama&lt;/font&gt;" style="ellipse;whiteSpace=wrap;html=1;" parent="1" vertex="1">
          <mxGeometry x="80" y="50" width="110" height="50" as="geometry" />
        </mxCell>
        <mxCell id="AyXInt_FfGXdh9bznU79-27" value="&lt;font style=&quot;font-size: 18px;&quot;&gt;Nama&lt;/font&gt;" style="ellipse;whiteSpace=wrap;html=1;" parent="1" vertex="1">
          <mxGeometry x="190" y="80" width="110" height="50" as="geometry" />
        </mxCell>
        <mxCell id="AyXInt_FfGXdh9bznU79-28" value="&lt;font style=&quot;font-size: 18px;&quot;&gt;Nama&lt;/font&gt;" style="ellipse;whiteSpace=wrap;html=1;" parent="1" vertex="1">
          <mxGeometry x="-40" y="80" width="110" height="50" as="geometry" />
        </mxCell>
        <mxCell id="AyXInt_FfGXdh9bznU79-29" value="" style="endArrow=none;html=1;rounded=0;" parent="1" target="AyXInt_FfGXdh9bznU79-28" edge="1">
          <mxGeometry width="50" height="50" relative="1" as="geometry">
            <mxPoint x="110" y="175" as="sourcePoint" />
            <mxPoint x="160" y="125" as="targetPoint" />
          </mxGeometry>
        </mxCell>
        <mxCell id="AyXInt_FfGXdh9bznU79-31" value="" style="endArrow=none;html=1;rounded=0;entryX=0.5;entryY=1;entryDx=0;entryDy=0;exitX=0.25;exitY=0;exitDx=0;exitDy=0;" parent="1" source="AyXInt_FfGXdh9bznU79-2" target="AyXInt_FfGXdh9bznU79-25" edge="1">
          <mxGeometry width="50" height="50" relative="1" as="geometry">
            <mxPoint x="150" y="175" as="sourcePoint" />
            <mxPoint x="200" y="125" as="targetPoint" />
          </mxGeometry>
        </mxCell>
        <mxCell id="AyXInt_FfGXdh9bznU79-32" value="" style="endArrow=none;html=1;rounded=0;exitX=1;exitY=0;exitDx=0;exitDy=0;" parent="1" source="AyXInt_FfGXdh9bznU79-2" edge="1">
          <mxGeometry width="50" height="50" relative="1" as="geometry">
            <mxPoint x="210" y="175" as="sourcePoint" />
            <mxPoint x="240" y="130" as="targetPoint" />
          </mxGeometry>
        </mxCell>
        <mxCell id="AyXInt_FfGXdh9bznU79-33" value="&lt;font style=&quot;font-size: 14px;&quot;&gt;id_petugas&lt;/font&gt;" style="ellipse;whiteSpace=wrap;html=1;" parent="1" vertex="1">
          <mxGeometry x="304" y="80" width="110" height="50" as="geometry" />
        </mxCell>
        <mxCell id="AyXInt_FfGXdh9bznU79-34" value="" style="endArrow=none;html=1;rounded=0;entryX=0;entryY=0.5;entryDx=0;entryDy=0;" parent="1" target="AyXInt_FfGXdh9bznU79-4" edge="1">
          <mxGeometry width="50" height="50" relative="1" as="geometry">
            <mxPoint x="500" y="200" as="sourcePoint" />
            <mxPoint x="827" y="200" as="targetPoint" />
          </mxGeometry>
        </mxCell>
        <mxCell id="AyXInt_FfGXdh9bznU79-4" value="&lt;font style=&quot;font-size: 18px;&quot;&gt;Meminjam&lt;/font&gt;" style="rhombus;whiteSpace=wrap;html=1;" parent="1" vertex="1">
          <mxGeometry x="450" y="140" width="130" height="100" as="geometry" />
        </mxCell>
        <mxCell id="AyXInt_FfGXdh9bznU79-38" value="" style="endArrow=none;html=1;rounded=0;entryX=1;entryY=1;entryDx=0;entryDy=0;exitX=0.18;exitY=0.333;exitDx=0;exitDy=0;exitPerimeter=0;" parent="1" source="AyXInt_FfGXdh9bznU79-4" target="AyXInt_FfGXdh9bznU79-33" edge="1">
          <mxGeometry width="50" height="50" relative="1" as="geometry">
            <mxPoint x="470" y="165" as="sourcePoint" />
            <mxPoint x="520" y="115" as="targetPoint" />
          </mxGeometry>
        </mxCell>
        <mxCell id="AyXInt_FfGXdh9bznU79-40" value="&lt;font style=&quot;font-size: 14px;&quot;&gt;id_peminjman&lt;/font&gt;" style="ellipse;whiteSpace=wrap;html=1;" parent="1" vertex="1">
          <mxGeometry x="420" y="50" width="110" height="50" as="geometry" />
        </mxCell>
        <mxCell id="AyXInt_FfGXdh9bznU79-43" value="" style="endArrow=none;html=1;rounded=0;entryX=0.5;entryY=1;entryDx=0;entryDy=0;" parent="1" target="AyXInt_FfGXdh9bznU79-40" edge="1">
          <mxGeometry width="50" height="50" relative="1" as="geometry">
            <mxPoint x="480" y="165" as="sourcePoint" />
            <mxPoint x="530" y="115" as="targetPoint" />
          </mxGeometry>
        </mxCell>
        <mxCell id="AyXInt_FfGXdh9bznU79-44" style="edgeStyle=orthogonalEdgeStyle;rounded=0;orthogonalLoop=1;jettySize=auto;html=1;exitX=0.5;exitY=1;exitDx=0;exitDy=0;" parent="1" source="AyXInt_FfGXdh9bznU79-4" target="AyXInt_FfGXdh9bznU79-4" edge="1">
          <mxGeometry relative="1" as="geometry" />
        </mxCell>
        <mxCell id="AyXInt_FfGXdh9bznU79-45" value="&lt;span style=&quot;font-size: 14px;&quot;&gt;id_buku&lt;/span&gt;" style="ellipse;whiteSpace=wrap;html=1;" parent="1" vertex="1">
          <mxGeometry x="530" y="40" width="110" height="50" as="geometry" />
        </mxCell>
        <mxCell id="AyXInt_FfGXdh9bznU79-50" value="" style="endArrow=none;html=1;rounded=0;entryX=0.455;entryY=1;entryDx=0;entryDy=0;entryPerimeter=0;" parent="1" target="AyXInt_FfGXdh9bznU79-45" edge="1">
          <mxGeometry width="50" height="50" relative="1" as="geometry">
            <mxPoint x="530" y="150" as="sourcePoint" />
            <mxPoint x="580" y="100" as="targetPoint" />
          </mxGeometry>
        </mxCell>
        <mxCell id="AyXInt_FfGXdh9bznU79-51" value="&lt;font style=&quot;font-size: 14px;&quot;&gt;Nis&lt;/font&gt;" style="ellipse;whiteSpace=wrap;html=1;" parent="1" vertex="1">
          <mxGeometry x="640" y="20" width="110" height="50" as="geometry" />
        </mxCell>
        <mxCell id="AyXInt_FfGXdh9bznU79-54" value="" style="endArrow=none;html=1;rounded=0;entryX=0.303;entryY=0.946;entryDx=0;entryDy=0;entryPerimeter=0;exitX=0.783;exitY=0.28;exitDx=0;exitDy=0;exitPerimeter=0;" parent="1" source="AyXInt_FfGXdh9bznU79-4" target="AyXInt_FfGXdh9bznU79-51" edge="1">
          <mxGeometry width="50" height="50" relative="1" as="geometry">
            <mxPoint x="540" y="160" as="sourcePoint" />
            <mxPoint x="590" y="100" as="targetPoint" />
          </mxGeometry>
        </mxCell>
        <mxCell id="AyXInt_FfGXdh9bznU79-55" value="&lt;span style=&quot;font-size: 14px;&quot;&gt;waktu peminajaman&lt;/span&gt;" style="ellipse;whiteSpace=wrap;html=1;" parent="1" vertex="1">
          <mxGeometry x="650" y="80" width="110" height="50" as="geometry" />
        </mxCell>
        <mxCell id="AyXInt_FfGXdh9bznU79-56" value="" style="endArrow=none;html=1;rounded=0;" parent="1" target="AyXInt_FfGXdh9bznU79-55" edge="1">
          <mxGeometry width="50" height="50" relative="1" as="geometry">
            <mxPoint x="570" y="180" as="sourcePoint" />
            <mxPoint x="620" y="130" as="targetPoint" />
          </mxGeometry>
        </mxCell>
        <mxCell id="AyXInt_FfGXdh9bznU79-57" value="&lt;span style=&quot;font-size: 14px;&quot;&gt;Id buku&lt;/span&gt;" style="ellipse;whiteSpace=wrap;html=1;" parent="1" vertex="1">
          <mxGeometry x="760" y="80" width="110" height="50" as="geometry" />
        </mxCell>
        <mxCell id="AyXInt_FfGXdh9bznU79-58" value="&lt;span style=&quot;font-size: 14px;&quot;&gt;jenis&lt;/span&gt;" style="ellipse;whiteSpace=wrap;html=1;" parent="1" vertex="1">
          <mxGeometry x="870" y="-60" width="110" height="50" as="geometry" />
        </mxCell>
        <mxCell id="AyXInt_FfGXdh9bznU79-60" value="&lt;span style=&quot;font-size: 14px;&quot;&gt;judul&lt;/span&gt;" style="ellipse;whiteSpace=wrap;html=1;" parent="1" vertex="1">
          <mxGeometry x="790" y="10" width="110" height="50" as="geometry" />
        </mxCell>
        <mxCell id="AyXInt_FfGXdh9bznU79-61" value="&lt;span style=&quot;font-size: 14px;&quot;&gt;jumlah&lt;/span&gt;" style="ellipse;whiteSpace=wrap;html=1;" parent="1" vertex="1">
          <mxGeometry x="1060" y="60" width="110" height="50" as="geometry" />
        </mxCell>
        <mxCell id="AyXInt_FfGXdh9bznU79-62" value="&lt;span style=&quot;font-size: 14px;&quot;&gt;id_petugas&lt;/span&gt;" style="ellipse;whiteSpace=wrap;html=1;" parent="1" vertex="1">
          <mxGeometry x="1200" y="165" width="110" height="50" as="geometry" />
        </mxCell>
        <mxCell id="AyXInt_FfGXdh9bznU79-63" value="&lt;span style=&quot;font-size: 14px;&quot;&gt;penerbit&lt;/span&gt;" style="ellipse;whiteSpace=wrap;html=1;" parent="1" vertex="1">
          <mxGeometry x="990" y="10" width="110" height="50" as="geometry" />
        </mxCell>
        <mxCell id="AyXInt_FfGXdh9bznU79-64" value="" style="endArrow=none;html=1;rounded=0;" parent="1" edge="1">
          <mxGeometry width="50" height="50" relative="1" as="geometry">
            <mxPoint x="930" y="600" as="sourcePoint" />
            <mxPoint x="930" y="215" as="targetPoint" />
          </mxGeometry>
        </mxCell>
        <mxCell id="AyXInt_FfGXdh9bznU79-99" value="N" style="edgeLabel;html=1;align=center;verticalAlign=middle;resizable=0;points=[];" parent="AyXInt_FfGXdh9bznU79-64" vertex="1" connectable="0">
          <mxGeometry x="0.8523" y="-2" relative="1" as="geometry">
            <mxPoint y="1" as="offset" />
          </mxGeometry>
        </mxCell>
        <mxCell id="AyXInt_FfGXdh9bznU79-66" value="" style="endArrow=none;html=1;rounded=0;entryX=0.686;entryY=1.003;entryDx=0;entryDy=0;entryPerimeter=0;exitX=0.25;exitY=0;exitDx=0;exitDy=0;" parent="1" source="AyXInt_FfGXdh9bznU79-23" target="AyXInt_FfGXdh9bznU79-57" edge="1">
          <mxGeometry width="50" height="50" relative="1" as="geometry">
            <mxPoint x="900" y="160" as="sourcePoint" />
            <mxPoint x="590" y="100" as="targetPoint" />
          </mxGeometry>
        </mxCell>
        <mxCell id="AyXInt_FfGXdh9bznU79-67" value="" style="endArrow=none;html=1;rounded=0;exitX=0.442;exitY=0.006;exitDx=0;exitDy=0;exitPerimeter=0;" parent="1" source="AyXInt_FfGXdh9bznU79-23" target="AyXInt_FfGXdh9bznU79-60" edge="1">
          <mxGeometry width="50" height="50" relative="1" as="geometry">
            <mxPoint x="930" y="160" as="sourcePoint" />
            <mxPoint x="845" y="140" as="targetPoint" />
          </mxGeometry>
        </mxCell>
        <mxCell id="AyXInt_FfGXdh9bznU79-68" value="" style="endArrow=none;html=1;rounded=0;entryX=0.5;entryY=1;entryDx=0;entryDy=0;" parent="1" source="AyXInt_FfGXdh9bznU79-23" target="AyXInt_FfGXdh9bznU79-63" edge="1">
          <mxGeometry width="50" height="50" relative="1" as="geometry">
            <mxPoint x="923" y="189" as="sourcePoint" />
            <mxPoint x="855" y="150" as="targetPoint" />
          </mxGeometry>
        </mxCell>
        <mxCell id="AyXInt_FfGXdh9bznU79-69" value="" style="endArrow=none;html=1;rounded=0;entryX=0.58;entryY=1.051;entryDx=0;entryDy=0;entryPerimeter=0;exitX=0.5;exitY=0;exitDx=0;exitDy=0;" parent="1" source="AyXInt_FfGXdh9bznU79-23" target="AyXInt_FfGXdh9bznU79-58" edge="1">
          <mxGeometry width="50" height="50" relative="1" as="geometry">
            <mxPoint x="933" y="199" as="sourcePoint" />
            <mxPoint x="865" y="160" as="targetPoint" />
          </mxGeometry>
        </mxCell>
        <mxCell id="AyXInt_FfGXdh9bznU79-70" value="" style="endArrow=none;html=1;rounded=0;entryX=0.5;entryY=1;entryDx=0;entryDy=0;exitX=0.933;exitY=-0.027;exitDx=0;exitDy=0;exitPerimeter=0;" parent="1" source="AyXInt_FfGXdh9bznU79-23" target="AyXInt_FfGXdh9bznU79-61" edge="1">
          <mxGeometry width="50" height="50" relative="1" as="geometry">
            <mxPoint x="943" y="209" as="sourcePoint" />
            <mxPoint x="875" y="170" as="targetPoint" />
          </mxGeometry>
        </mxCell>
        <mxCell id="AyXInt_FfGXdh9bznU79-71" value="" style="endArrow=none;html=1;rounded=0;entryX=0;entryY=1;entryDx=0;entryDy=0;exitX=1;exitY=0.5;exitDx=0;exitDy=0;" parent="1" source="AyXInt_FfGXdh9bznU79-23" target="AyXInt_FfGXdh9bznU79-62" edge="1">
          <mxGeometry width="50" height="50" relative="1" as="geometry">
            <mxPoint x="953" y="219" as="sourcePoint" />
            <mxPoint x="885" y="180" as="targetPoint" />
          </mxGeometry>
        </mxCell>
        <mxCell id="AyXInt_FfGXdh9bznU79-72" value="mengelola" style="rhombus;whiteSpace=wrap;html=1;" parent="1" vertex="1">
          <mxGeometry x="870" y="585" width="100" height="45" as="geometry" />
        </mxCell>
        <mxCell id="AyXInt_FfGXdh9bznU79-74" value="&lt;span style=&quot;font-size: 18px;&quot;&gt;petugas&lt;/span&gt;" style="rounded=0;whiteSpace=wrap;html=1;" parent="1" vertex="1">
          <mxGeometry x="490" y="610" width="130" height="50" as="geometry" />
        </mxCell>
        <mxCell id="AyXInt_FfGXdh9bznU79-78" value="" style="endArrow=none;html=1;rounded=0;entryX=1;entryY=0.5;entryDx=0;entryDy=0;exitX=0;exitY=0.5;exitDx=0;exitDy=0;" parent="1" source="AyXInt_FfGXdh9bznU79-72" target="AyXInt_FfGXdh9bznU79-74" edge="1">
          <mxGeometry width="50" height="50" relative="1" as="geometry">
            <mxPoint x="870" y="610" as="sourcePoint" />
            <mxPoint x="920" y="560" as="targetPoint" />
            <Array as="points" />
          </mxGeometry>
        </mxCell>
        <mxCell id="AyXInt_FfGXdh9bznU79-100" value="1" style="edgeLabel;html=1;align=center;verticalAlign=middle;resizable=0;points=[];" parent="AyXInt_FfGXdh9bznU79-78" vertex="1" connectable="0">
          <mxGeometry x="0.8245" y="-2" relative="1" as="geometry">
            <mxPoint x="1" as="offset" />
          </mxGeometry>
        </mxCell>
        <mxCell id="AyXInt_FfGXdh9bznU79-83" value="&lt;span style=&quot;font-size: 14px;&quot;&gt;no_hp&lt;/span&gt;" style="ellipse;whiteSpace=wrap;html=1;" parent="1" vertex="1">
          <mxGeometry x="320" y="680" width="110" height="50" as="geometry" />
        </mxCell>
        <mxCell id="AyXInt_FfGXdh9bznU79-85" value="&lt;font style=&quot;font-size: 14px;&quot;&gt;id_petugas&lt;/font&gt;" style="ellipse;whiteSpace=wrap;html=1;" parent="1" vertex="1">
          <mxGeometry x="350" y="500" width="110" height="50" as="geometry" />
        </mxCell>
        <mxCell id="AyXInt_FfGXdh9bznU79-86" value="&lt;span style=&quot;font-size: 14px;&quot;&gt;nama&lt;/span&gt;" style="ellipse;whiteSpace=wrap;html=1;" parent="1" vertex="1">
          <mxGeometry x="270" y="585" width="110" height="50" as="geometry" />
        </mxCell>
        <mxCell id="AyXInt_FfGXdh9bznU79-90" value="" style="endArrow=none;html=1;rounded=0;entryX=1;entryY=1;entryDx=0;entryDy=0;exitX=0.25;exitY=0;exitDx=0;exitDy=0;" parent="1" source="AyXInt_FfGXdh9bznU79-74" target="AyXInt_FfGXdh9bznU79-85" edge="1">
          <mxGeometry width="50" height="50" relative="1" as="geometry">
            <mxPoint x="880" y="618" as="sourcePoint" />
            <mxPoint x="630" y="645" as="targetPoint" />
            <Array as="points" />
          </mxGeometry>
        </mxCell>
        <mxCell id="AyXInt_FfGXdh9bznU79-91" value="" style="endArrow=none;html=1;rounded=0;entryX=1;entryY=0.5;entryDx=0;entryDy=0;exitX=0;exitY=0.5;exitDx=0;exitDy=0;" parent="1" source="AyXInt_FfGXdh9bznU79-74" target="AyXInt_FfGXdh9bznU79-86" edge="1">
          <mxGeometry width="50" height="50" relative="1" as="geometry">
            <mxPoint x="580" y="622" as="sourcePoint" />
            <mxPoint x="431" y="562" as="targetPoint" />
            <Array as="points" />
          </mxGeometry>
        </mxCell>
        <mxCell id="AyXInt_FfGXdh9bznU79-92" value="" style="endArrow=none;html=1;rounded=0;entryX=1;entryY=0;entryDx=0;entryDy=0;exitX=0.1;exitY=1.007;exitDx=0;exitDy=0;exitPerimeter=0;" parent="1" source="AyXInt_FfGXdh9bznU79-74" target="AyXInt_FfGXdh9bznU79-83" edge="1">
          <mxGeometry width="50" height="50" relative="1" as="geometry">
            <mxPoint x="500" y="645" as="sourcePoint" />
            <mxPoint x="390" y="620" as="targetPoint" />
            <Array as="points" />
          </mxGeometry>
        </mxCell>
        <mxCell id="AyXInt_FfGXdh9bznU79-94" value="mentujui" style="rhombus;whiteSpace=wrap;html=1;" parent="1" vertex="1">
          <mxGeometry x="475" y="330" width="80" height="80" as="geometry" />
        </mxCell>
        <mxCell id="AyXInt_FfGXdh9bznU79-95" value="" style="endArrow=none;html=1;rounded=0;entryX=0.5;entryY=1;entryDx=0;entryDy=0;exitX=0.5;exitY=0;exitDx=0;exitDy=0;" parent="1" source="AyXInt_FfGXdh9bznU79-94" target="AyXInt_FfGXdh9bznU79-4" edge="1">
          <mxGeometry width="50" height="50" relative="1" as="geometry">
            <mxPoint x="820" y="450" as="sourcePoint" />
            <mxPoint x="870" y="400" as="targetPoint" />
          </mxGeometry>
        </mxCell>
        <mxCell id="AyXInt_FfGXdh9bznU79-98" value="N" style="edgeLabel;html=1;align=center;verticalAlign=middle;resizable=0;points=[];" parent="AyXInt_FfGXdh9bznU79-95" vertex="1" connectable="0">
          <mxGeometry x="0.4794" y="-7" relative="1" as="geometry">
            <mxPoint y="1" as="offset" />
          </mxGeometry>
        </mxCell>
        <mxCell id="AyXInt_FfGXdh9bznU79-96" value="" style="endArrow=none;html=1;rounded=0;entryX=0.5;entryY=1;entryDx=0;entryDy=0;exitX=0.5;exitY=0;exitDx=0;exitDy=0;" parent="1" source="AyXInt_FfGXdh9bznU79-74" target="AyXInt_FfGXdh9bznU79-94" edge="1">
          <mxGeometry width="50" height="50" relative="1" as="geometry">
            <mxPoint x="525" y="340" as="sourcePoint" />
            <mxPoint x="525" y="250" as="targetPoint" />
          </mxGeometry>
        </mxCell>
        <mxCell id="AyXInt_FfGXdh9bznU79-97" value="1" style="edgeLabel;html=1;align=center;verticalAlign=middle;resizable=0;points=[];" parent="AyXInt_FfGXdh9bznU79-96" vertex="1" connectable="0">
          <mxGeometry x="-0.719" y="1" relative="1" as="geometry">
            <mxPoint as="offset" />
          </mxGeometry>
        </mxCell>
      </root>
    </mxGraphModel>
  </diagram>
  <diagram id="Ik5tu3L0alfu4Jer8O0g" name="Halaman-2">
    <mxGraphModel dx="2294" dy="1879" grid="1" gridSize="10" guides="1" tooltips="1" connect="1" arrows="1" fold="1" page="1" pageScale="1" pageWidth="827" pageHeight="1169" math="0" shadow="0">
      <root>
        <mxCell id="0" />
        <mxCell id="1" parent="0" />
        <mxCell id="97nwpzyj7H7UpfLu7_iV-1" value="pelanggan" style="rounded=1;whiteSpace=wrap;html=1;" vertex="1" parent="1">
          <mxGeometry x="-170" y="120" width="120" height="60" as="geometry" />
        </mxCell>
        <mxCell id="97nwpzyj7H7UpfLu7_iV-2" value="seblak&lt;span style=&quot;color: rgba(0, 0, 0, 0); font-family: monospace; font-size: 0px; text-align: start; text-wrap-mode: nowrap;&quot;&gt;%3CmxGraphModel%3E%3Croot%3E%3CmxCell%20id%3D%220%22%2F%3E%3CmxCell%20id%3D%221%22%20parent%3D%220%22%2F%3E%3CmxCell%20id%3D%222%22%20value%3D%22pelanggan%22%20style%3D%22rounded%3D1%3BwhiteSpace%3Dwrap%3Bhtml%3D1%3B%22%20vertex%3D%221%22%20parent%3D%221%22%3E%3CmxGeometry%20x%3D%22100%22%20y%3D%22130%22%20width%3D%22120%22%20height%3D%2260%22%20as%3D%22geometry%22%2F%3E%3C%2FmxCell%3E%3C%2Froot%3E%3C%2FmxGraphModel%3E&lt;/span&gt;" style="rounded=1;whiteSpace=wrap;html=1;arcSize=0;" vertex="1" parent="1">
          <mxGeometry x="630" y="100" width="120" height="60" as="geometry" />
        </mxCell>
        <mxCell id="97nwpzyj7H7UpfLu7_iV-3" value="pesanan" style="rounded=1;whiteSpace=wrap;html=1;" vertex="1" parent="1">
          <mxGeometry x="-140" y="575" width="120" height="60" as="geometry" />
        </mxCell>
        <mxCell id="97nwpzyj7H7UpfLu7_iV-4" value="detail pesanan" style="rounded=1;whiteSpace=wrap;html=1;" vertex="1" parent="1">
          <mxGeometry x="610" y="575" width="120" height="60" as="geometry" />
        </mxCell>
        <mxCell id="97nwpzyj7H7UpfLu7_iV-5" value="pembayaran" style="rounded=1;whiteSpace=wrap;html=1;" vertex="1" parent="1">
          <mxGeometry x="260" y="310" width="120" height="60" as="geometry" />
        </mxCell>
        <mxCell id="97nwpzyj7H7UpfLu7_iV-6" value="admin" style="rounded=1;whiteSpace=wrap;html=1;" vertex="1" parent="1">
          <mxGeometry x="460" y="310" width="120" height="60" as="geometry" />
        </mxCell>
        <mxCell id="97nwpzyj7H7UpfLu7_iV-7" value="email" style="ellipse;whiteSpace=wrap;html=1;rotation=-30;" vertex="1" parent="1">
          <mxGeometry x="-220" y="-50.00000000000001" width="90" height="50" as="geometry" />
        </mxCell>
        <mxCell id="97nwpzyj7H7UpfLu7_iV-8" value="password" style="ellipse;whiteSpace=wrap;html=1;rotation=0;" vertex="1" parent="1">
          <mxGeometry x="-100" y="-80" width="90" height="50" as="geometry" />
        </mxCell>
        <mxCell id="97nwpzyj7H7UpfLu7_iV-9" value="alamat" style="ellipse;whiteSpace=wrap;html=1;rotation=30;" vertex="1" parent="1">
          <mxGeometry x="30" y="-60" width="90" height="50" as="geometry" />
        </mxCell>
        <mxCell id="97nwpzyj7H7UpfLu7_iV-10" value="no_hp" style="ellipse;whiteSpace=wrap;html=1;rotation=30;" vertex="1" parent="1">
          <mxGeometry x="140" y="-10" width="90" height="50" as="geometry" />
        </mxCell>
        <mxCell id="97nwpzyj7H7UpfLu7_iV-11" value="nama" style="ellipse;whiteSpace=wrap;html=1;rotation=-30;" vertex="1" parent="1">
          <mxGeometry x="-330" y="20" width="90" height="50" as="geometry" />
        </mxCell>
        <mxCell id="97nwpzyj7H7UpfLu7_iV-12" value="id_pelanggan" style="ellipse;whiteSpace=wrap;html=1;rotation=-30;" vertex="1" parent="1">
          <mxGeometry x="-413" y="140" width="90" height="50" as="geometry" />
        </mxCell>
        <mxCell id="97nwpzyj7H7UpfLu7_iV-13" value="id_seblak" style="ellipse;whiteSpace=wrap;html=1;rotation=-45;" vertex="1" parent="1">
          <mxGeometry x="490" width="90" height="50" as="geometry" />
        </mxCell>
        <mxCell id="97nwpzyj7H7UpfLu7_iV-14" value="tingkat pedas" style="ellipse;whiteSpace=wrap;html=1;rotation=30;" vertex="1" parent="1">
          <mxGeometry x="810" y="-19.999999999999993" width="90" height="50" as="geometry" />
        </mxCell>
        <mxCell id="97nwpzyj7H7UpfLu7_iV-15" value="tanggal pesanan" style="ellipse;whiteSpace=wrap;html=1;rotation=-30;" vertex="1" parent="1">
          <mxGeometry x="-300" y="580" width="90" height="50" as="geometry" />
        </mxCell>
        <mxCell id="97nwpzyj7H7UpfLu7_iV-16" value="id pesanan" style="ellipse;whiteSpace=wrap;html=1;rotation=-60;" vertex="1" parent="1">
          <mxGeometry x="-260" y="690" width="90" height="50" as="geometry" />
        </mxCell>
        <mxCell id="97nwpzyj7H7UpfLu7_iV-17" value="id_pelanggan" style="ellipse;whiteSpace=wrap;html=1;rotation=-30;" vertex="1" parent="1">
          <mxGeometry x="-300" y="640" width="90" height="50" as="geometry" />
        </mxCell>
        <mxCell id="97nwpzyj7H7UpfLu7_iV-18" value="total harga" style="ellipse;whiteSpace=wrap;html=1;rotation=-30;" vertex="1" parent="1">
          <mxGeometry x="-280" y="510" width="90" height="50" as="geometry" />
        </mxCell>
        <mxCell id="97nwpzyj7H7UpfLu7_iV-19" value="id pesanan" style="ellipse;whiteSpace=wrap;html=1;rotation=60;" vertex="1" parent="1">
          <mxGeometry x="860" y="510" width="90" height="50" as="geometry" />
        </mxCell>
        <mxCell id="97nwpzyj7H7UpfLu7_iV-20" value="id seblak" style="ellipse;whiteSpace=wrap;html=1;rotation=60;" vertex="1" parent="1">
          <mxGeometry x="850" y="590" width="90" height="50" as="geometry" />
        </mxCell>
        <mxCell id="97nwpzyj7H7UpfLu7_iV-21" value="subtotal" style="ellipse;whiteSpace=wrap;html=1;rotation=120;" vertex="1" parent="1">
          <mxGeometry x="690" y="720" width="90" height="50" as="geometry" />
        </mxCell>
        <mxCell id="97nwpzyj7H7UpfLu7_iV-22" value="jumlah" style="ellipse;whiteSpace=wrap;html=1;rotation=120;" vertex="1" parent="1">
          <mxGeometry x="770" y="650" width="90" height="50" as="geometry" />
        </mxCell>
        <mxCell id="97nwpzyj7H7UpfLu7_iV-23" value="id detail" style="ellipse;whiteSpace=wrap;html=1;rotation=60;" vertex="1" parent="1">
          <mxGeometry x="810" y="420" width="90" height="50" as="geometry" />
        </mxCell>
        <mxCell id="97nwpzyj7H7UpfLu7_iV-24" value="id pesanan" style="ellipse;whiteSpace=wrap;html=1;rotation=-70;" vertex="1" parent="1">
          <mxGeometry x="160" y="230" width="80" height="50" as="geometry" />
        </mxCell>
        <mxCell id="97nwpzyj7H7UpfLu7_iV-25" value="id pembayaran" style="ellipse;whiteSpace=wrap;html=1;rotation=5;" vertex="1" parent="1">
          <mxGeometry x="240" y="440" width="90" height="50" as="geometry" />
        </mxCell>
        <mxCell id="97nwpzyj7H7UpfLu7_iV-26" value="metode pembayaran" style="ellipse;whiteSpace=wrap;html=1;rotation=-50;" vertex="1" parent="1">
          <mxGeometry x="220" y="190" width="90" height="50" as="geometry" />
        </mxCell>
        <mxCell id="97nwpzyj7H7UpfLu7_iV-27" value="password" style="ellipse;whiteSpace=wrap;html=1;rotation=15;" vertex="1" parent="1">
          <mxGeometry x="500" y="210" width="90" height="50" as="geometry" />
        </mxCell>
        <mxCell id="97nwpzyj7H7UpfLu7_iV-28" value="nama admin" style="ellipse;whiteSpace=wrap;html=1;rotation=120;" vertex="1" parent="1">
          <mxGeometry x="370" y="450" width="90" height="50" as="geometry" />
        </mxCell>
        <mxCell id="97nwpzyj7H7UpfLu7_iV-29" value="email" style="ellipse;whiteSpace=wrap;html=1;rotation=-30;" vertex="1" parent="1">
          <mxGeometry x="400" y="220" width="90" height="50" as="geometry" />
        </mxCell>
        <mxCell id="97nwpzyj7H7UpfLu7_iV-30" value="id admin" style="ellipse;whiteSpace=wrap;html=1;rotation=30;" vertex="1" parent="1">
          <mxGeometry x="500" y="420" width="90" height="50" as="geometry" />
        </mxCell>
        <mxCell id="97nwpzyj7H7UpfLu7_iV-31" value="membuat" style="rhombus;whiteSpace=wrap;html=1;" vertex="1" parent="1">
          <mxGeometry x="-130" y="310" width="80" height="80" as="geometry" />
        </mxCell>
        <mxCell id="97nwpzyj7H7UpfLu7_iV-32" value="memiliki" style="rhombus;whiteSpace=wrap;html=1;" vertex="1" parent="1">
          <mxGeometry x="290" y="580" width="80" height="80" as="geometry" />
        </mxCell>
        <mxCell id="97nwpzyj7H7UpfLu7_iV-33" value="muncul" style="rhombus;whiteSpace=wrap;html=1;" vertex="1" parent="1">
          <mxGeometry x="640" y="280" width="80" height="80" as="geometry" />
        </mxCell>
        <mxCell id="97nwpzyj7H7UpfLu7_iV-34" value="memiliki" style="rhombus;whiteSpace=wrap;html=1;" vertex="1" parent="1">
          <mxGeometry x="60" y="280" width="80" height="80" as="geometry" />
        </mxCell>
        <mxCell id="97nwpzyj7H7UpfLu7_iV-35" value="mengelola" style="rhombus;whiteSpace=wrap;html=1;" vertex="1" parent="1">
          <mxGeometry x="360" y="60" width="80" height="80" as="geometry" />
        </mxCell>
        <mxCell id="97nwpzyj7H7UpfLu7_iV-36" value="" style="endArrow=none;html=1;rounded=0;entryX=0.74;entryY=0.936;entryDx=0;entryDy=0;entryPerimeter=0;exitX=0;exitY=0.5;exitDx=0;exitDy=0;" edge="1" parent="1" source="97nwpzyj7H7UpfLu7_iV-1" target="97nwpzyj7H7UpfLu7_iV-12">
          <mxGeometry width="50" height="50" relative="1" as="geometry">
            <mxPoint x="100" y="260" as="sourcePoint" />
            <mxPoint x="150" y="210" as="targetPoint" />
          </mxGeometry>
        </mxCell>
        <mxCell id="97nwpzyj7H7UpfLu7_iV-37" value="" style="endArrow=none;html=1;rounded=0;entryX=0.5;entryY=1;entryDx=0;entryDy=0;exitX=0;exitY=0.25;exitDx=0;exitDy=0;" edge="1" parent="1" source="97nwpzyj7H7UpfLu7_iV-1" target="97nwpzyj7H7UpfLu7_iV-11">
          <mxGeometry width="50" height="50" relative="1" as="geometry">
            <mxPoint x="-160" y="160" as="sourcePoint" />
            <mxPoint x="-328" y="183" as="targetPoint" />
          </mxGeometry>
        </mxCell>
        <mxCell id="97nwpzyj7H7UpfLu7_iV-38" value="" style="endArrow=none;html=1;rounded=0;entryX=0.5;entryY=1;entryDx=0;entryDy=0;exitX=0.25;exitY=0;exitDx=0;exitDy=0;" edge="1" parent="1" source="97nwpzyj7H7UpfLu7_iV-1" target="97nwpzyj7H7UpfLu7_iV-7">
          <mxGeometry width="50" height="50" relative="1" as="geometry">
            <mxPoint x="-160" y="145" as="sourcePoint" />
            <mxPoint x="-262" y="77" as="targetPoint" />
          </mxGeometry>
        </mxCell>
        <mxCell id="97nwpzyj7H7UpfLu7_iV-39" value="" style="endArrow=none;html=1;rounded=0;entryX=0.401;entryY=0.951;entryDx=0;entryDy=0;exitX=0.5;exitY=0;exitDx=0;exitDy=0;entryPerimeter=0;" edge="1" parent="1" source="97nwpzyj7H7UpfLu7_iV-1" target="97nwpzyj7H7UpfLu7_iV-8">
          <mxGeometry width="50" height="50" relative="1" as="geometry">
            <mxPoint x="-130" y="130" as="sourcePoint" />
            <mxPoint x="-152" y="7" as="targetPoint" />
          </mxGeometry>
        </mxCell>
        <mxCell id="97nwpzyj7H7UpfLu7_iV-40" value="" style="endArrow=none;html=1;rounded=0;entryX=0.5;entryY=1;entryDx=0;entryDy=0;exitX=0.75;exitY=0;exitDx=0;exitDy=0;" edge="1" parent="1" source="97nwpzyj7H7UpfLu7_iV-1" target="97nwpzyj7H7UpfLu7_iV-9">
          <mxGeometry width="50" height="50" relative="1" as="geometry">
            <mxPoint x="-100" y="130" as="sourcePoint" />
            <mxPoint x="-54" y="-22" as="targetPoint" />
          </mxGeometry>
        </mxCell>
        <mxCell id="97nwpzyj7H7UpfLu7_iV-41" value="" style="endArrow=none;html=1;rounded=0;entryX=0.5;entryY=1;entryDx=0;entryDy=0;exitX=0.081;exitY=-0.047;exitDx=0;exitDy=0;exitPerimeter=0;" edge="1" parent="1" source="97nwpzyj7H7UpfLu7_iV-5" target="97nwpzyj7H7UpfLu7_iV-24">
          <mxGeometry width="50" height="50" relative="1" as="geometry">
            <mxPoint x="-90" y="140" as="sourcePoint" />
            <mxPoint x="-44" y="-12" as="targetPoint" />
          </mxGeometry>
        </mxCell>
        <mxCell id="97nwpzyj7H7UpfLu7_iV-42" value="" style="endArrow=none;html=1;rounded=0;entryX=0.367;entryY=0.985;entryDx=0;entryDy=0;exitX=0.417;exitY=0;exitDx=0;exitDy=0;exitPerimeter=0;entryPerimeter=0;" edge="1" parent="1" source="97nwpzyj7H7UpfLu7_iV-5" target="97nwpzyj7H7UpfLu7_iV-26">
          <mxGeometry width="50" height="50" relative="1" as="geometry">
            <mxPoint x="280" y="317" as="sourcePoint" />
            <mxPoint x="233" y="274" as="targetPoint" />
          </mxGeometry>
        </mxCell>
        <mxCell id="97nwpzyj7H7UpfLu7_iV-43" value="" style="endArrow=none;html=1;rounded=0;entryX=0.623;entryY=-0.027;entryDx=0;entryDy=0;exitX=0.5;exitY=1;exitDx=0;exitDy=0;entryPerimeter=0;" edge="1" parent="1" source="97nwpzyj7H7UpfLu7_iV-5" target="97nwpzyj7H7UpfLu7_iV-25">
          <mxGeometry width="50" height="50" relative="1" as="geometry">
            <mxPoint x="320" y="320" as="sourcePoint" />
            <mxPoint x="286" y="250" as="targetPoint" />
          </mxGeometry>
        </mxCell>
        <mxCell id="97nwpzyj7H7UpfLu7_iV-44" value="" style="endArrow=none;html=1;rounded=0;entryX=0.5;entryY=1;entryDx=0;entryDy=0;exitX=0.114;exitY=1.005;exitDx=0;exitDy=0;exitPerimeter=0;" edge="1" parent="1" source="97nwpzyj7H7UpfLu7_iV-6" target="97nwpzyj7H7UpfLu7_iV-28">
          <mxGeometry width="50" height="50" relative="1" as="geometry">
            <mxPoint x="350" y="380" as="sourcePoint" />
            <mxPoint x="296" y="260" as="targetPoint" />
          </mxGeometry>
        </mxCell>
        <mxCell id="97nwpzyj7H7UpfLu7_iV-45" value="" style="endArrow=none;html=1;rounded=0;entryX=0;entryY=0;entryDx=0;entryDy=0;exitX=0.25;exitY=1;exitDx=0;exitDy=0;" edge="1" parent="1" source="97nwpzyj7H7UpfLu7_iV-6" target="97nwpzyj7H7UpfLu7_iV-30">
          <mxGeometry width="50" height="50" relative="1" as="geometry">
            <mxPoint x="360" y="380" as="sourcePoint" />
            <mxPoint x="403" y="473" as="targetPoint" />
          </mxGeometry>
        </mxCell>
        <mxCell id="97nwpzyj7H7UpfLu7_iV-46" value="" style="endArrow=none;html=1;rounded=0;entryX=0.598;entryY=-0.022;entryDx=0;entryDy=0;exitX=0.5;exitY=1;exitDx=0;exitDy=0;entryPerimeter=0;" edge="1" parent="1" source="97nwpzyj7H7UpfLu7_iV-27" target="97nwpzyj7H7UpfLu7_iV-6">
          <mxGeometry width="50" height="50" relative="1" as="geometry">
            <mxPoint x="370" y="390" as="sourcePoint" />
            <mxPoint x="413" y="483" as="targetPoint" />
          </mxGeometry>
        </mxCell>
        <mxCell id="97nwpzyj7H7UpfLu7_iV-47" value="" style="endArrow=none;html=1;rounded=0;entryX=0.25;entryY=0;entryDx=0;entryDy=0;exitX=0.359;exitY=1;exitDx=0;exitDy=0;exitPerimeter=0;" edge="1" parent="1" source="97nwpzyj7H7UpfLu7_iV-29" target="97nwpzyj7H7UpfLu7_iV-6">
          <mxGeometry width="50" height="50" relative="1" as="geometry">
            <mxPoint x="549" y="269" as="sourcePoint" />
            <mxPoint x="542" y="319" as="targetPoint" />
          </mxGeometry>
        </mxCell>
        <mxCell id="97nwpzyj7H7UpfLu7_iV-48" value="" style="endArrow=none;html=1;rounded=0;entryX=0;entryY=0;entryDx=0;entryDy=0;exitX=0.5;exitY=1;exitDx=0;exitDy=0;" edge="1" parent="1" source="97nwpzyj7H7UpfLu7_iV-13" target="97nwpzyj7H7UpfLu7_iV-2">
          <mxGeometry width="50" height="50" relative="1" as="geometry">
            <mxPoint x="457" y="283" as="sourcePoint" />
            <mxPoint x="500" y="320" as="targetPoint" />
          </mxGeometry>
        </mxCell>
        <mxCell id="97nwpzyj7H7UpfLu7_iV-49" value="" style="endArrow=none;html=1;rounded=0;entryX=1;entryY=0;entryDx=0;entryDy=0;exitX=0;exitY=1;exitDx=0;exitDy=0;" edge="1" parent="1" source="97nwpzyj7H7UpfLu7_iV-14" target="97nwpzyj7H7UpfLu7_iV-2">
          <mxGeometry width="50" height="50" relative="1" as="geometry">
            <mxPoint x="563" y="53" as="sourcePoint" />
            <mxPoint x="640" y="110" as="targetPoint" />
          </mxGeometry>
        </mxCell>
        <mxCell id="97nwpzyj7H7UpfLu7_iV-50" value="" style="endArrow=none;html=1;rounded=0;entryX=0.353;entryY=0.961;entryDx=0;entryDy=0;exitX=1;exitY=0;exitDx=0;exitDy=0;entryPerimeter=0;" edge="1" parent="1" source="97nwpzyj7H7UpfLu7_iV-4" target="97nwpzyj7H7UpfLu7_iV-23">
          <mxGeometry width="50" height="50" relative="1" as="geometry">
            <mxPoint x="573" y="63" as="sourcePoint" />
            <mxPoint x="650" y="120" as="targetPoint" />
          </mxGeometry>
        </mxCell>
        <mxCell id="97nwpzyj7H7UpfLu7_iV-51" value="" style="endArrow=none;html=1;rounded=0;entryX=0.368;entryY=0.943;entryDx=0;entryDy=0;exitX=1;exitY=0.25;exitDx=0;exitDy=0;entryPerimeter=0;" edge="1" parent="1" source="97nwpzyj7H7UpfLu7_iV-4" target="97nwpzyj7H7UpfLu7_iV-19">
          <mxGeometry width="50" height="50" relative="1" as="geometry">
            <mxPoint x="740" y="585" as="sourcePoint" />
            <mxPoint x="838" y="455" as="targetPoint" />
          </mxGeometry>
        </mxCell>
        <mxCell id="97nwpzyj7H7UpfLu7_iV-52" value="" style="endArrow=none;html=1;rounded=0;entryX=0;entryY=0.5;entryDx=0;entryDy=0;exitX=1;exitY=0.5;exitDx=0;exitDy=0;" edge="1" parent="1" source="97nwpzyj7H7UpfLu7_iV-4" target="97nwpzyj7H7UpfLu7_iV-20">
          <mxGeometry width="50" height="50" relative="1" as="geometry">
            <mxPoint x="740" y="600" as="sourcePoint" />
            <mxPoint x="880" y="526" as="targetPoint" />
          </mxGeometry>
        </mxCell>
        <mxCell id="97nwpzyj7H7UpfLu7_iV-53" value="" style="endArrow=none;html=1;rounded=0;entryX=0;entryY=1;entryDx=0;entryDy=0;exitX=1;exitY=0.75;exitDx=0;exitDy=0;" edge="1" parent="1" source="97nwpzyj7H7UpfLu7_iV-4" target="97nwpzyj7H7UpfLu7_iV-22">
          <mxGeometry width="50" height="50" relative="1" as="geometry">
            <mxPoint x="740" y="615" as="sourcePoint" />
            <mxPoint x="882" y="586" as="targetPoint" />
          </mxGeometry>
        </mxCell>
        <mxCell id="97nwpzyj7H7UpfLu7_iV-54" value="" style="endArrow=none;html=1;rounded=0;entryX=0;entryY=1;entryDx=0;entryDy=0;exitX=0.646;exitY=1.08;exitDx=0;exitDy=0;exitPerimeter=0;" edge="1" parent="1" source="97nwpzyj7H7UpfLu7_iV-4" target="97nwpzyj7H7UpfLu7_iV-21">
          <mxGeometry width="50" height="50" relative="1" as="geometry">
            <mxPoint x="740" y="630" as="sourcePoint" />
            <mxPoint x="826" y="649" as="targetPoint" />
          </mxGeometry>
        </mxCell>
        <mxCell id="97nwpzyj7H7UpfLu7_iV-55" value="" style="endArrow=none;html=1;rounded=0;entryX=1;entryY=0.5;entryDx=0;entryDy=0;exitX=0.5;exitY=1;exitDx=0;exitDy=0;" edge="1" parent="1" source="97nwpzyj7H7UpfLu7_iV-3" target="97nwpzyj7H7UpfLu7_iV-16">
          <mxGeometry width="50" height="50" relative="1" as="geometry">
            <mxPoint x="698" y="650" as="sourcePoint" />
            <mxPoint x="746" y="719" as="targetPoint" />
          </mxGeometry>
        </mxCell>
        <mxCell id="97nwpzyj7H7UpfLu7_iV-56" value="" style="endArrow=none;html=1;rounded=0;entryX=1;entryY=0.5;entryDx=0;entryDy=0;exitX=0;exitY=0.5;exitDx=0;exitDy=0;" edge="1" parent="1" source="97nwpzyj7H7UpfLu7_iV-3" target="97nwpzyj7H7UpfLu7_iV-17">
          <mxGeometry width="50" height="50" relative="1" as="geometry">
            <mxPoint x="-70" y="645" as="sourcePoint" />
            <mxPoint x="-183" y="686" as="targetPoint" />
          </mxGeometry>
        </mxCell>
        <mxCell id="97nwpzyj7H7UpfLu7_iV-57" value="" style="endArrow=none;html=1;rounded=0;entryX=0.943;entryY=0.705;entryDx=0;entryDy=0;exitX=0;exitY=0;exitDx=0;exitDy=0;entryPerimeter=0;" edge="1" parent="1" source="97nwpzyj7H7UpfLu7_iV-3" target="97nwpzyj7H7UpfLu7_iV-15">
          <mxGeometry width="50" height="50" relative="1" as="geometry">
            <mxPoint x="-130" y="615" as="sourcePoint" />
            <mxPoint x="-206" y="653" as="targetPoint" />
          </mxGeometry>
        </mxCell>
        <mxCell id="97nwpzyj7H7UpfLu7_iV-58" value="" style="endArrow=none;html=1;rounded=0;entryX=1;entryY=1;entryDx=0;entryDy=0;exitX=0.25;exitY=0;exitDx=0;exitDy=0;" edge="1" parent="1" source="97nwpzyj7H7UpfLu7_iV-3" target="97nwpzyj7H7UpfLu7_iV-18">
          <mxGeometry width="50" height="50" relative="1" as="geometry">
            <mxPoint x="-130" y="585" as="sourcePoint" />
            <mxPoint x="-205" y="604" as="targetPoint" />
          </mxGeometry>
        </mxCell>
        <mxCell id="97nwpzyj7H7UpfLu7_iV-59" value="" style="endArrow=none;html=1;rounded=0;entryX=0.5;entryY=1;entryDx=0;entryDy=0;exitX=0.411;exitY=-0.024;exitDx=0;exitDy=0;exitPerimeter=0;" edge="1" parent="1" source="97nwpzyj7H7UpfLu7_iV-3" target="97nwpzyj7H7UpfLu7_iV-31">
          <mxGeometry width="50" height="50" relative="1" as="geometry">
            <mxPoint x="-120" y="595" as="sourcePoint" />
            <mxPoint x="-195" y="614" as="targetPoint" />
          </mxGeometry>
        </mxCell>
        <mxCell id="97nwpzyj7H7UpfLu7_iV-60" value="N" style="edgeLabel;html=1;align=center;verticalAlign=middle;resizable=0;points=[];" vertex="1" connectable="0" parent="97nwpzyj7H7UpfLu7_iV-59">
          <mxGeometry x="-0.7806" y="-2" relative="1" as="geometry">
            <mxPoint as="offset" />
          </mxGeometry>
        </mxCell>
        <mxCell id="97nwpzyj7H7UpfLu7_iV-61" value="" style="endArrow=none;html=1;rounded=0;entryX=0.5;entryY=1;entryDx=0;entryDy=0;exitX=0.5;exitY=0;exitDx=0;exitDy=0;" edge="1" parent="1" source="97nwpzyj7H7UpfLu7_iV-31" target="97nwpzyj7H7UpfLu7_iV-1">
          <mxGeometry width="50" height="50" relative="1" as="geometry">
            <mxPoint x="-81" y="584" as="sourcePoint" />
            <mxPoint x="-80" y="400" as="targetPoint" />
          </mxGeometry>
        </mxCell>
        <mxCell id="97nwpzyj7H7UpfLu7_iV-62" value="1" style="edgeLabel;html=1;align=center;verticalAlign=middle;resizable=0;points=[];" vertex="1" connectable="0" parent="97nwpzyj7H7UpfLu7_iV-61">
          <mxGeometry x="0.6588" y="-1" relative="1" as="geometry">
            <mxPoint y="-1" as="offset" />
          </mxGeometry>
        </mxCell>
        <mxCell id="97nwpzyj7H7UpfLu7_iV-63" value="" style="endArrow=none;html=1;rounded=0;entryX=0;entryY=0.5;entryDx=0;entryDy=0;exitX=1;exitY=0.75;exitDx=0;exitDy=0;" edge="1" parent="1" source="97nwpzyj7H7UpfLu7_iV-1" target="97nwpzyj7H7UpfLu7_iV-34">
          <mxGeometry width="50" height="50" relative="1" as="geometry">
            <mxPoint x="-71" y="594" as="sourcePoint" />
            <mxPoint x="-70" y="410" as="targetPoint" />
          </mxGeometry>
        </mxCell>
        <mxCell id="97nwpzyj7H7UpfLu7_iV-64" value="1" style="edgeLabel;html=1;align=center;verticalAlign=middle;resizable=0;points=[];" vertex="1" connectable="0" parent="97nwpzyj7H7UpfLu7_iV-63">
          <mxGeometry x="-0.7705" y="-1" relative="1" as="geometry">
            <mxPoint as="offset" />
          </mxGeometry>
        </mxCell>
        <mxCell id="97nwpzyj7H7UpfLu7_iV-65" value="" style="endArrow=none;html=1;rounded=0;entryX=0;entryY=0.5;entryDx=0;entryDy=0;exitX=1;exitY=0.5;exitDx=0;exitDy=0;" edge="1" parent="1" source="97nwpzyj7H7UpfLu7_iV-34" target="97nwpzyj7H7UpfLu7_iV-5">
          <mxGeometry width="50" height="50" relative="1" as="geometry">
            <mxPoint x="-61" y="604" as="sourcePoint" />
            <mxPoint x="-60" y="420" as="targetPoint" />
          </mxGeometry>
        </mxCell>
        <mxCell id="97nwpzyj7H7UpfLu7_iV-66" value="1" style="edgeLabel;html=1;align=center;verticalAlign=middle;resizable=0;points=[];" vertex="1" connectable="0" parent="97nwpzyj7H7UpfLu7_iV-65">
          <mxGeometry x="0.705" y="-4" relative="1" as="geometry">
            <mxPoint y="-1" as="offset" />
          </mxGeometry>
        </mxCell>
        <mxCell id="97nwpzyj7H7UpfLu7_iV-67" value="" style="endArrow=none;html=1;rounded=0;exitX=1;exitY=0.5;exitDx=0;exitDy=0;entryX=0;entryY=0.25;entryDx=0;entryDy=0;" edge="1" parent="1" source="97nwpzyj7H7UpfLu7_iV-35" target="97nwpzyj7H7UpfLu7_iV-2">
          <mxGeometry width="50" height="50" relative="1" as="geometry">
            <mxPoint x="-51" y="614" as="sourcePoint" />
            <mxPoint x="620" y="110" as="targetPoint" />
          </mxGeometry>
        </mxCell>
        <mxCell id="97nwpzyj7H7UpfLu7_iV-68" value="" style="endArrow=none;html=1;rounded=0;exitX=0;exitY=0.25;exitDx=0;exitDy=0;entryX=0.5;entryY=1;entryDx=0;entryDy=0;" edge="1" parent="1" source="97nwpzyj7H7UpfLu7_iV-6" target="97nwpzyj7H7UpfLu7_iV-35">
          <mxGeometry width="50" height="50" relative="1" as="geometry">
            <mxPoint x="-41" y="624" as="sourcePoint" />
            <mxPoint x="-40" y="440" as="targetPoint" />
            <Array as="points">
              <mxPoint x="380" y="260" />
            </Array>
          </mxGeometry>
        </mxCell>
        <mxCell id="97nwpzyj7H7UpfLu7_iV-69" value="nama seblak" style="ellipse;whiteSpace=wrap;html=1;rotation=-15;" vertex="1" parent="1">
          <mxGeometry x="610" y="-60" width="90" height="50" as="geometry" />
        </mxCell>
        <mxCell id="97nwpzyj7H7UpfLu7_iV-70" value="" style="endArrow=none;html=1;rounded=0;exitX=0.362;exitY=0.996;exitDx=0;exitDy=0;exitPerimeter=0;" edge="1" parent="1" source="97nwpzyj7H7UpfLu7_iV-69">
          <mxGeometry width="50" height="50" relative="1" as="geometry">
            <mxPoint x="563" y="53" as="sourcePoint" />
            <mxPoint x="640" y="100" as="targetPoint" />
          </mxGeometry>
        </mxCell>
        <mxCell id="97nwpzyj7H7UpfLu7_iV-71" value="" style="endArrow=none;html=1;rounded=0;entryX=0.421;entryY=0.021;entryDx=0;entryDy=0;entryPerimeter=0;" edge="1" parent="1" target="97nwpzyj7H7UpfLu7_iV-2">
          <mxGeometry width="50" height="50" relative="1" as="geometry">
            <mxPoint x="740" y="-20" as="sourcePoint" />
            <mxPoint x="650" y="110" as="targetPoint" />
          </mxGeometry>
        </mxCell>
        <mxCell id="97nwpzyj7H7UpfLu7_iV-72" value="harga" style="ellipse;whiteSpace=wrap;html=1;rotation=-15;" vertex="1" parent="1">
          <mxGeometry x="700" y="-60" width="90" height="50" as="geometry" />
        </mxCell>
        <mxCell id="97nwpzyj7H7UpfLu7_iV-73" value="" style="endArrow=none;html=1;rounded=0;entryX=0.412;entryY=1.058;entryDx=0;entryDy=0;entryPerimeter=0;exitX=0.5;exitY=0;exitDx=0;exitDy=0;" edge="1" parent="1" source="97nwpzyj7H7UpfLu7_iV-33" target="97nwpzyj7H7UpfLu7_iV-2">
          <mxGeometry width="50" height="50" relative="1" as="geometry">
            <mxPoint x="670" y="270" as="sourcePoint" />
            <mxPoint x="640" y="125" as="targetPoint" />
          </mxGeometry>
        </mxCell>
        <mxCell id="97nwpzyj7H7UpfLu7_iV-74" value="1" style="edgeLabel;html=1;align=center;verticalAlign=middle;resizable=0;points=[];" vertex="1" connectable="0" parent="97nwpzyj7H7UpfLu7_iV-73">
          <mxGeometry x="0.6574" y="-2" relative="1" as="geometry">
            <mxPoint y="1" as="offset" />
          </mxGeometry>
        </mxCell>
        <mxCell id="97nwpzyj7H7UpfLu7_iV-75" value="" style="endArrow=none;html=1;rounded=0;exitX=0.5;exitY=1;exitDx=0;exitDy=0;entryX=0.591;entryY=0.003;entryDx=0;entryDy=0;entryPerimeter=0;" edge="1" parent="1" source="97nwpzyj7H7UpfLu7_iV-33" target="97nwpzyj7H7UpfLu7_iV-4">
          <mxGeometry width="50" height="50" relative="1" as="geometry">
            <mxPoint x="460" y="120" as="sourcePoint" />
            <mxPoint x="680" y="570" as="targetPoint" />
          </mxGeometry>
        </mxCell>
        <mxCell id="97nwpzyj7H7UpfLu7_iV-76" value="N" style="edgeLabel;html=1;align=center;verticalAlign=middle;resizable=0;points=[];" vertex="1" connectable="0" parent="97nwpzyj7H7UpfLu7_iV-75">
          <mxGeometry x="0.7877" y="-6" relative="1" as="geometry">
            <mxPoint as="offset" />
          </mxGeometry>
        </mxCell>
        <mxCell id="97nwpzyj7H7UpfLu7_iV-77" value="" style="endArrow=none;html=1;rounded=0;exitX=1;exitY=0.5;exitDx=0;exitDy=0;entryX=0.004;entryY=0.64;entryDx=0;entryDy=0;entryPerimeter=0;" edge="1" parent="1" source="97nwpzyj7H7UpfLu7_iV-32" target="97nwpzyj7H7UpfLu7_iV-4">
          <mxGeometry width="50" height="50" relative="1" as="geometry">
            <mxPoint x="590" y="445" as="sourcePoint" />
            <mxPoint x="591" y="660" as="targetPoint" />
          </mxGeometry>
        </mxCell>
        <mxCell id="97nwpzyj7H7UpfLu7_iV-78" value="N" style="edgeLabel;html=1;align=center;verticalAlign=middle;resizable=0;points=[];" vertex="1" connectable="0" parent="97nwpzyj7H7UpfLu7_iV-77">
          <mxGeometry x="0.7491" y="1" relative="1" as="geometry">
            <mxPoint as="offset" />
          </mxGeometry>
        </mxCell>
        <mxCell id="97nwpzyj7H7UpfLu7_iV-79" value="" style="endArrow=none;html=1;rounded=0;exitX=1;exitY=0.75;exitDx=0;exitDy=0;entryX=0.591;entryY=0.003;entryDx=0;entryDy=0;entryPerimeter=0;" edge="1" parent="1" source="97nwpzyj7H7UpfLu7_iV-3">
          <mxGeometry width="50" height="50" relative="1" as="geometry">
            <mxPoint x="290" y="407.5" as="sourcePoint" />
            <mxPoint x="291" y="622.5" as="targetPoint" />
          </mxGeometry>
        </mxCell>
        <mxCell id="97nwpzyj7H7UpfLu7_iV-80" value="1" style="edgeLabel;html=1;align=center;verticalAlign=middle;resizable=0;points=[];" vertex="1" connectable="0" parent="97nwpzyj7H7UpfLu7_iV-79">
          <mxGeometry x="-0.8878" y="-2" relative="1" as="geometry">
            <mxPoint as="offset" />
          </mxGeometry>
        </mxCell>
        <mxCell id="97nwpzyj7H7UpfLu7_iV-81" value="status pesanan" style="ellipse;whiteSpace=wrap;html=1;rotation=-60;" vertex="1" parent="1">
          <mxGeometry x="-190" y="740" width="90" height="50" as="geometry" />
        </mxCell>
        <mxCell id="97nwpzyj7H7UpfLu7_iV-82" value="" style="endArrow=none;html=1;rounded=0;entryX=1;entryY=0.5;entryDx=0;entryDy=0;exitX=0.574;exitY=0.989;exitDx=0;exitDy=0;exitPerimeter=0;" edge="1" parent="1" source="97nwpzyj7H7UpfLu7_iV-3" target="97nwpzyj7H7UpfLu7_iV-81">
          <mxGeometry width="50" height="50" relative="1" as="geometry">
            <mxPoint x="-70" y="645" as="sourcePoint" />
            <mxPoint x="-182" y="686" as="targetPoint" />
          </mxGeometry>
        </mxCell>
        <mxCell id="97nwpzyj7H7UpfLu7_iV-83" value="" style="ellipse;whiteSpace=wrap;html=1;" vertex="1" parent="1">
          <mxGeometry x="120" y="370" width="90" height="40" as="geometry" />
        </mxCell>
        <mxCell id="97nwpzyj7H7UpfLu7_iV-84" value="" style="endArrow=none;html=1;rounded=0;entryX=0.981;entryY=0.653;entryDx=0;entryDy=0;exitX=0;exitY=0.75;exitDx=0;exitDy=0;entryPerimeter=0;" edge="1" parent="1" source="97nwpzyj7H7UpfLu7_iV-5" target="97nwpzyj7H7UpfLu7_iV-83">
          <mxGeometry width="50" height="50" relative="1" as="geometry">
            <mxPoint x="280" y="317" as="sourcePoint" />
            <mxPoint x="233" y="274" as="targetPoint" />
          </mxGeometry>
        </mxCell>
      </root>
    </mxGraphModel>
  </diagram>
</mxfile>
